<svg width="250" height="60" viewBox="0 0 250 60" fill="none" xmlns="http://www.w3.org/2000/svg">
<path d="M4 23V20H25V23" fill="black"/>
<path d="M15 8H22V12H25V0H22V5H15V0H12V12H15V8ZM35 9.6H30V7.6H34V5H30V3H35V0H27V12H35V9.6ZM43 4.6H43.5L50.6 12.1H54V0H51V7.7H50.5L43.5 0H40V12H43V4.6ZM64 9.6H58V7.6H63V5H58V3H64V0H55V12H64V9.6ZM73.1 12L75.6 2.7H76.4L79.2 12H84.5L88 0H84.6L82.3 9.2H81.6L78.8 0H73.3L70.9 9.2H70.2L67.4 0H64L67.8 12H73.1ZM97.5 8.9C97.5 9.5 97.2 9.9 95.8 9.9C94.4 9.9 93 9.6 91.7 9L91.6 11.7C92.9 12.2 94.3 12.5 95.8 12.5C99 12.5 100.5 10.6 100.5 8.5C100.5 4.5 94.3 5.6 94.3 3.6C94.3 3 94.9 2.6 95.9 2.6C97.2 2.6 98.4 2.9 99.6 3.5L100.2 0.9C98.8 0.3 97.4 0 96 0C93.4 0 91.4 1.4 91.4 3.9C91.4 8.2 97.5 7.1 97.5 8.9ZM107.3 12.5C108.4 12.6 109.4 12.4 110.4 12.1V9.3C109.5 9.6 108.6 9.8 107.7 9.7C105.9 9.9 104.3 8.5 104.1 6.7C104.1 6.5 104.1 6.4 104.1 6.2C103.9 4.4 105.2 2.8 107 2.7C107.2 2.7 107.4 2.7 107.6 2.7C108.5 2.7 109.4 2.8 110.3 3.1L110.6 0.4C109.6 0.1 108.6 0 107.6 0.1C104.2 -0.2 101.1 2.3 100.8 5.7C100.5 9.1 103 12.2 106.4 12.5C106.6 12.5 106.8 12.5 107 12.5H107.3ZM115 8H122V12H125V0H122V5H115V0H112V12H115V8ZM133.5 12.5C137.4 12.5 140.6 10.4 140.6 6.2C140.6 2.1 137.6 0 133.5 0C129.4 0 126.3 2.3 126.3 6.2C126.4 10.4 129.6 12.5 133.5 12.5ZM133.5 2.5C135.8 2.5 137.5 3.7 137.5 6.1C137.5 8.7 135.8 9.9 133.4 9.9C131 9.9 129.4 8.7 129.4 6.2C129.4 3.7 131.2 2.5 133.5 2.5ZM148.3 12.5C152.2 12.5 155.4 10.4 155.4 6.2C155.4 2.1 152.4 0 148.3 0C144.2 0 141.2 2.3 141.2 6.2C141.2 10.4 144.4 12.5 148.3 12.5ZM148.3 2.5C150.6 2.5 152.3 3.7 152.3 6.1C152.3 8.7 150.6 9.9 148.2 9.9C145.8 9.9 144.2 8.7 144.2 6.2C144.2 3.7 146 2.5 148.3 2.5ZM169 9H159V0H156V12H169V9ZM4 12H7V3H11V0H0V3H4V12Z" fill="black"/>
<path d="M4 15H224V18H4V15Z" fill="black"/>
<path d="M27 19.9998H47.8946C54.6119 19.9998 57.9535 24.2864 57.9535 29.2145C57.9535 35.1215 53.1267 38.7331 47.8946 38.7331H33.7511V47.0029H27V19.9998ZM33.7511 26.0755V32.995H46.9155C50.2237 32.995 50.9663 31.1049 50.9663 29.3834C50.9663 27.9656 50.2237 26.0755 46.9155 26.0755H33.7511Z" fill="#E82E21"/>
<path d="M72.5687 41.8385H62.6783L60.8218 47.0029H53.6319L64.4674 19.9998H71.4209L81.5812 47.0029H74.2564L72.5687 41.8385ZM64.636 36.3365H70.8134L67.9103 27.3243L64.636 36.3365Z" fill="#E82E21"/>
<path d="M82.6941 19.9998H95.4873C101.53 19.9998 104.534 24.2864 104.534 29.2145C104.589 30.9136 104.178 32.5954 103.345 34.0772C102.512 35.559 101.289 36.784 99.808 37.6192L104.534 47.0029H96.9388L93.192 38.7331H89.4452V47.0029H82.6941V19.9998ZM89.4452 26.0755V32.995H93.8334C94.3213 33.0298 94.811 32.961 95.2705 32.7932C95.7299 32.6254 96.1487 32.3623 96.4993 32.0213C96.8499 31.6803 97.1245 31.269 97.3049 30.8143C97.4854 30.3597 97.5678 29.8721 97.5465 29.3834C97.5465 27.9656 96.4663 26.0755 93.8334 26.0755H89.4452Z" fill="#E82E21"/>
<path d="M106.086 28.2359C106.086 22.5314 110.643 19.46 116.516 19.46C119.925 19.46 123.672 20.3374 125.799 21.5527L124.516 27.2907C121.981 25.9398 119.153 25.2327 116.28 25.2318C114.187 25.2318 112.769 26.0419 112.769 27.4594C112.769 31.8475 126.609 29.3836 126.609 38.4634C126.609 43.2901 123.166 47.5432 115.976 47.5432C112.904 47.5432 109.427 47.1379 106.626 45.8215L106.896 39.6446C109.787 41.0521 112.963 41.7795 116.179 41.7711C119.149 41.7711 119.892 40.7248 119.892 39.4759C119.892 35.4255 106.086 37.7883 106.086 28.2359Z" fill="#E82E21"/>
<path d="M143.249 19.46C152.532 19.46 159.215 24.2528 159.215 33.3664C159.215 42.8513 151.992 47.5432 143.215 47.5432C134.372 47.5432 127.148 42.7839 127.148 33.4002C127.148 24.5567 133.73 19.46 143.249 19.46ZM143.148 41.8724C148.447 41.8724 152.262 39.1721 152.262 33.2315C152.262 27.8309 148.447 25.1304 143.182 25.1304C137.916 25.1304 134.101 27.7633 134.101 33.434C134.101 39.1383 137.916 41.8724 143.148 41.8724Z" fill="#E82E21"/>
<path d="M169.138 28.0672H167.451V47.0031H160.699V20H170.185L188.041 37.0451H189.729V20H196.48V47.0031H188.312L169.138 28.0672Z" fill="#E82E21"/>
<path d="M198.943 28.2359C198.943 22.5314 204.344 19.46 211.568 19.46C216.158 19.46 220.918 20.3374 223.044 21.5527L221.762 27.2907C219.5 25.9407 214.943 25.2318 211.331 25.2318C207.45 25.2318 205.627 26.0419 205.627 27.4594C205.627 32.1175 223.855 28.5059 223.855 38.4634C223.855 43.2901 219.736 47.5432 211.028 47.5432C207.112 47.5432 202.285 47.1379 199.483 45.8215L199.753 39.6446C202.555 40.9948 206.639 41.7711 211.23 41.7711C215.652 41.7711 217.137 40.7248 217.137 39.4759C217.137 35.1217 198.943 38.5983 198.943 28.2359Z" fill="#E82E21"/>
</svg>
